<?xml version="1.0" encoding="UTF-8" standalone="no"?>
<!-- Created with Inkscape (http://www.inkscape.org/) -->

<svg
   width="396.8414mm"
   height="448.78952mm"
   viewBox="0 0 396.84141 448.78953"
   version="1.1"
   id="svg5"
   xmlns="http://www.w3.org/2000/svg"
   xmlns:svg="http://www.w3.org/2000/svg">
  <defs
     id="defs2" />
  <g
     id="layer3"
     transform="translate(137.12877,-31.274414)">
    <circle
       style="fill:#808080;stroke-width:0.559263"
       id="path270"
       cy="259.55487"
       cx="67.327194"
       r="150" />
  </g>
  <g
     id="layer1"
     transform="translate(137.12877,-31.274414)">
    <path
       style="fill:#005500;stroke-width:0.559263"
       id="circle357"
       d="m 217.32719,259.55487 a 150,150 0 0 1 -20.09619,75 l -129.903806,-75 z" />
    <path
       style="fill:#005500;stroke-width:0.559263"
       id="path420"
       d="m 142.32719,389.45868 a 150,150 0 0 1 -74.999996,20.09619 v -150 z" />
    <path
       style="fill:#005500;stroke-width:0.559263"
       id="path422"
       d="M -7.6728055,389.45868 A 150,150 0 0 1 -62.576618,334.55487 l 129.903812,-75 z" />
    <path
       style="fill:#005500;stroke-width:0.559263"
       id="path424"
       d="m -82.672806,259.55487 a 150,150 0 0 1 20.096187,-75 l 129.903813,75 z" />
    <path
       style="fill:#005500;stroke-width:0.559263"
       id="path426"
       d="M -7.6728064,129.65106 A 150,150 0 0 1 67.327194,109.55487 v 150 z" />
    <path
       style="fill:#005500;stroke-width:0.559263"
       id="path428"
       d="m 142.3272,129.65106 a 150,150 0 0 1 54.9038,54.90381 l -129.903806,75 z" />
  </g>
  <g
     id="layer4"
     transform="translate(137.12877,-31.274414)">
    <path
       style="fill:#808080;stroke-width:0.488307"
       id="path1252"
       d="m 132.81165,146.13248 a 130.9689,130.9689 0 0 1 47.93794,47.93794 L 67.327194,259.55487 Z" />
    <path
       style="fill:#808080;stroke-width:0.488307"
       id="path1989"
       d="m 1.8427424,146.13247 a 130.9689,130.9689 0 0 1 65.4844516,-17.5465 v 130.9689 z" />
    <path
       style="fill:#005500;stroke-width:0.488307"
       id="path2015"
       d="m 67.327194,128.58597 a 130.9689,130.9689 0 0 1 65.484456,17.54651 L 67.327194,259.55487 Z"
       transform="translate(1.2291666e-6)" />
    <path
       style="fill:#005500;stroke-width:0.488307"
       id="path2044"
       d="M -46.095204,194.07042 A 130.9689,130.9689 0 0 1 1.8427424,146.13247 l 65.4844516,113.4224 z" />
    <path
       style="fill:#808080;stroke-width:0.488307"
       id="path2066"
       d="m -63.641708,259.55487 a 130.9689,130.9689 0 0 1 17.546504,-65.48445 l 113.422398,65.48445 z" />
    <path
       style="fill:#005500;stroke-width:0.488307"
       id="path2090"
       d="M -46.095204,325.03932 A 130.9689,130.9689 0 0 1 -63.641708,259.55487 H 67.327194 Z"
       transform="translate(1.2291666e-6)" />
    <path
       style="fill:#808080;stroke-width:0.488307"
       id="path2111"
       d="M 1.8427432,372.97727 A 130.9689,130.9689 0 0 1 -46.095204,325.03932 L 67.327194,259.55487 Z" />
    <path
       style="fill:#005500;stroke-width:0.488307"
       id="path2133"
       d="M 67.327194,390.52377 A 130.9689,130.9689 0 0 1 1.8427432,372.97727 L 67.327194,259.55487 Z" />
    <path
       style="fill:#808080;stroke-width:0.488307"
       id="path2154"
       d="M 132.81166,372.9773 A 130.96893,130.96893 0 0 1 67.327194,390.5238 V 259.55487 Z" />
    <path
       style="fill:#005500;stroke-width:0.488307"
       id="path2175"
       d="M 180.74962,325.03934 A 130.96893,130.96893 0 0 1 132.81166,372.9773 L 67.327194,259.55487 Z" />
    <path
       style="fill:#808080;stroke-width:0.488307"
       id="path2198"
       d="m 198.29613,259.55487 a 130.96893,130.96893 0 0 1 -17.54651,65.48447 L 67.327194,259.55487 Z" />
    <path
       style="fill:#005500;stroke-width:0.488307"
       id="path2219"
       d="m 180.74959,194.07042 a 130.9689,130.9689 0 0 1 17.54651,65.48445 H 67.327194 Z" />
  </g>
  <g
     id="layer5"
     transform="translate(137.12877,-31.274414)">
    <path
       style="fill:#005500;fill-opacity:1;stroke-width:0.414423"
       id="path1265"
       d="m 122.90325,163.29433 a 111.1521,111.1521 0 0 1 40.68448,40.68449 l -96.260536,55.57605 z" />
    <path
       style="fill:#005500;fill-opacity:1;stroke-width:0.414422"
       id="path1992"
       d="m 11.751144,163.29433 a 111.1521,111.1521 0 0 1 55.57605,-14.89156 v 111.1521 z" />
    <path
       style="fill:#808080;stroke-width:0.414421"
       id="path2019"
       d="m 67.327194,148.40277 a 111.1521,111.1521 0 0 1 55.576056,14.89156 l -55.576056,96.26054 z" />
    <path
       style="fill:#808080;stroke-width:0.414422"
       id="path2047"
       d="m -28.933349,203.97882 a 111.1521,111.1521 0 0 1 40.684493,-40.68449 l 55.57605,96.26054 z" />
    <path
       style="fill:#005500;fill-opacity:1;stroke-width:0.414421"
       id="path2069"
       d="m -43.824905,259.55487 a 111.1521,111.1521 0 0 1 14.891556,-55.57605 l 96.260543,55.57605 z" />
    <path
       style="fill:#808080;stroke-width:0.414422"
       id="path2093"
       d="M -28.933349,315.13092 A 111.1521,111.1521 0 0 1 -43.824905,259.55487 H 67.327194 Z" />
    <path
       style="fill:#005500;fill-opacity:1;stroke-width:0.414422"
       id="path2114"
       d="M 11.751145,355.81541 A 111.1521,111.1521 0 0 1 -28.933349,315.13092 L 67.327194,259.55487 Z" />
    <path
       style="fill:#808080;stroke-width:0.414422"
       id="path2136"
       d="M 67.327194,370.70699 A 111.15212,111.15212 0 0 1 11.751133,355.81543 l 55.576061,-96.26056 z" />
    <path
       style="fill:#005500;fill-opacity:1;stroke-width:0.414422"
       id="path2157"
       d="M 122.90324,355.81542 A 111.15211,111.15211 0 0 1 67.327194,370.70698 V 259.55487 Z" />
    <path
       style="fill:#005500;fill-opacity:1;stroke-width:0.414422"
       id="path2201"
       d="m 178.47929,259.55487 a 111.1521,111.1521 0 0 1 -14.89155,55.57605 L 67.327194,259.55487 Z" />
    <path
       style="fill:#808080;stroke-width:0.414422"
       id="path2222"
       d="m 163.58773,203.97882 a 111.1521,111.1521 0 0 1 14.89156,55.57605 H 67.327194 Z" />
  </g>
  <g
     id="layer6"
     transform="translate(137.12877,-31.274414)">
    <path
       style="fill:#808080;fill-opacity:1;stroke-width:0.349112"
       id="path1946"
       d="m 114.1448,178.46441 a 93.635201,93.635201 0 0 1 34.27286,34.27286 l -81.090466,46.8176 z" />
    <path
       style="fill:#808080;fill-opacity:1;stroke-width:0.349112"
       id="path1996"
       d="m 20.509594,178.46441 a 93.635201,93.635201 0 0 1 46.8176,-12.54474 v 93.6352 z" />
    <path
       style="fill:#005500;fill-opacity:1;stroke-width:0.349111"
       id="path2022"
       d="M 67.327194,165.91967 A 93.635201,93.635201 0 0 1 114.1448,178.46441 L 67.327194,259.55487 Z" />
    <path
       style="fill:#005500;fill-opacity:1;stroke-width:0.349111"
       id="path2051"
       d="m -13.763269,212.73727 a 93.635201,93.635201 0 0 1 34.272863,-34.27286 l 46.8176,81.09046 z" />
    <path
       style="fill:#808080;fill-opacity:1;stroke-width:0.349111"
       id="path2072"
       d="m -26.308006,259.55487 a 93.635201,93.635201 0 0 1 12.544737,-46.8176 l 81.090463,46.8176 z" />
    <path
       style="fill:#005500;fill-opacity:1;stroke-width:0.349112"
       id="path2096"
       d="m -13.763269,306.37247 a 93.635201,93.635201 0 0 1 -12.544737,-46.8176 h 93.6352 z" />
    <path
       style="fill:#808080;fill-opacity:1;stroke-width:0.349112"
       id="path2117"
       d="m 20.509594,340.64533 a 93.635201,93.635201 0 0 1 -34.272863,-34.27286 l 81.090463,-46.8176 z" />
    <path
       style="fill:#005500;fill-opacity:1;stroke-width:0.349112"
       id="path2139"
       d="m 67.327194,353.19007 a 93.635201,93.635201 0 0 1 -46.8176,-12.54474 l 46.8176,-81.09046 z" />
    <path
       style="fill:#808080;fill-opacity:1;stroke-width:0.349112"
       id="path2160"
       d="M 114.1448,340.64535 A 93.635216,93.635216 0 0 1 67.327194,353.19009 V 259.55487 Z" />
    <path
       style="fill:#808080;stroke-width:0.414422"
       id="path2178"
       d="m 163.58774,315.13092 a 111.1521,111.1521 0 0 1 -40.6845,40.6845 L 67.327194,259.55487 Z"
       transform="translate(1.2291666e-6)" />
    <path
       style="fill:#808080;fill-opacity:1;stroke-width:0.349111"
       id="path2204"
       d="m 160.96239,259.55487 a 93.635201,93.635201 0 0 1 -12.54473,46.8176 l -81.090466,-46.8176 z" />
    <path
       style="fill:#005500;fill-opacity:1;stroke-width:0.349112"
       id="path2225"
       d="m 148.41766,212.73727 a 93.635201,93.635201 0 0 1 12.54473,46.8176 H 67.327194 Z" />
  </g>
  <g
     id="layer7"
     transform="translate(137.12877,-31.274414)">
    <path
       style="fill:#005500;fill-opacity:1;stroke-width:0.297349"
       id="path2000"
       d="m 27.45129,190.48778 a 79.751808,79.751808 0 0 1 39.875904,-10.68472 v 79.75181 z" />
    <path
       style="fill:#808080;fill-opacity:1;stroke-width:0.297348"
       id="path2025"
       d="M 67.327194,179.80306 A 79.751808,79.751808 0 0 1 107.2031,190.48778 L 67.327194,259.55487 Z" />
    <path
       style="fill:#808080;fill-opacity:1;stroke-width:0.297348"
       id="path2054"
       d="M -1.7398988,219.67897 A 79.751808,79.751808 0 0 1 27.45129,190.48778 l 39.875904,69.06709 z" />
    <path
       style="fill:#005500;fill-opacity:1;stroke-width:0.297349"
       id="path1949"
       d="m 107.2031,190.48778 a 79.751808,79.751808 0 0 1 29.19118,29.19118 l -69.067086,39.87591 z"
       transform="translate(1.2291666e-6)" />
    <path
       style="fill:#005500;fill-opacity:1;stroke-width:0.297348"
       id="path2076"
       d="m -12.424614,259.55487 a 79.751808,79.751808 0 0 1 10.6847152,-39.8759 l 69.0670928,39.8759 z" />
    <path
       style="fill:#808080;fill-opacity:1;stroke-width:0.297349"
       id="path2099"
       d="M -1.7398985,299.43077 A 79.751808,79.751808 0 0 1 -12.424614,259.55487 H 67.327194 Z" />
    <path
       style="fill:#005500;fill-opacity:1;stroke-width:0.297349"
       id="path2120"
       d="M 27.45129,328.62196 A 79.751808,79.751808 0 0 1 -1.7398985,299.43077 l 69.0670925,-39.8759 z" />
    <path
       style="fill:#808080;fill-opacity:1;stroke-width:0.297349"
       id="path2142"
       d="M 67.327194,339.30669 A 79.751816,79.751816 0 0 1 27.451286,328.62197 l 39.875908,-69.0671 z" />
    <path
       style="fill:#005500;fill-opacity:1;stroke-width:0.297349"
       id="path2163"
       d="M 107.2031,328.62197 A 79.751816,79.751816 0 0 1 67.327194,339.30669 V 259.55487 Z" />
    <path
       style="fill:#005500;fill-opacity:1;stroke-width:0.349112"
       id="path2182"
       d="m 148.41766,306.37247 a 93.635201,93.635201 0 0 1 -34.27287,34.27287 L 67.327194,259.55487 Z" />
    <path
       style="fill:#005500;fill-opacity:1;stroke-width:0.297348"
       id="path2207"
       d="m 147.079,259.55487 a 79.751808,79.751808 0 0 1 -10.68471,39.8759 l -69.067096,-39.8759 z" />
    <path
       style="fill:#808080;fill-opacity:1;stroke-width:0.297349"
       id="path2228"
       d="M 136.39428,219.67896 A 79.751808,79.751808 0 0 1 147.079,259.55487 H 67.327194 Z" />
  </g>
  <g
     id="layer8"
     transform="translate(137.12877,-31.274414)">
    <path
       style="fill:#808080;fill-opacity:1;stroke-width:0.239267"
       id="path1952"
       d="m 99.414046,203.97882 a 64.173698,64.173698 0 0 1 23.489204,23.4892 l -55.576056,32.08685 z" />
    <path
       style="fill:#808080;fill-opacity:1;stroke-width:0.239267"
       id="path2004"
       d="m 35.240345,203.97882 a 64.173698,64.173698 0 0 1 32.086849,-8.59765 v 64.1737 z" />
    <path
       style="fill:#005500;fill-opacity:1;stroke-width:0.239267"
       id="path2029"
       d="m 67.327194,195.38117 a 64.173698,64.173698 0 0 1 32.086852,8.59765 l -32.086852,55.57605 z" />
    <path
       style="fill:#005500;fill-opacity:1;stroke-width:0.239266"
       id="path2057"
       d="m 11.75114,227.46802 a 64.173698,64.173698 0 0 1 23.489205,-23.4892 l 32.086849,55.57605 z" />
    <path
       style="fill:#808080;fill-opacity:1;stroke-width:0.239266"
       id="path2081"
       d="M 3.1534958,259.55487 A 64.173698,64.173698 0 0 1 11.75114,227.46802 l 55.576054,32.08685 z" />
    <path
       style="fill:#005500;fill-opacity:1;stroke-width:0.239267"
       id="path2102"
       d="M 11.75114,291.64172 A 64.173698,64.173698 0 0 1 3.1534958,259.55487 H 67.327194 Z" />
    <path
       style="fill:#808080;fill-opacity:1;stroke-width:0.239267"
       id="path2123"
       d="M 35.240345,315.13092 A 64.173698,64.173698 0 0 1 11.75114,291.64172 l 55.576054,-32.08685 z" />
    <path
       style="fill:#005500;fill-opacity:1;stroke-width:0.239267"
       id="path2145"
       d="M 67.327194,323.72857 A 64.173698,64.173698 0 0 1 35.240345,315.13092 L 67.327194,259.55487 Z" />
    <path
       style="fill:#808080;fill-opacity:1;stroke-width:0.239267"
       id="path2166"
       d="m 99.414041,315.13093 a 64.173698,64.173698 0 0 1 -32.086847,8.59764 v -64.1737 z" />
    <path
       style="fill:#808080;fill-opacity:1;stroke-width:0.297349"
       id="path2185"
       d="m 136.39429,299.43077 a 79.751808,79.751808 0 0 1 -29.1912,29.19119 L 67.327194,259.55487 Z" />
    <path
       style="fill:#808080;fill-opacity:1;stroke-width:0.239266"
       id="path2210"
       d="m 131.50089,259.55487 a 64.173698,64.173698 0 0 1 -8.59764,32.08685 L 67.327194,259.55487 Z" />
    <path
       style="fill:#005500;fill-opacity:1;stroke-width:0.239267"
       id="path2231"
       d="m 122.90325,227.46802 a 64.173698,64.173698 0 0 1 8.59764,32.08685 H 67.327194 Z" />
  </g>
  <g
     id="layer9"
     transform="translate(137.12877,-31.274414)">
    <path
       style="fill:#005500;fill-opacity:1;stroke-width:0.182267"
       id="path1955"
       d="m 91.770212,217.21833 a 48.886032,48.886032 0 0 1 17.893528,17.89352 l -42.336546,24.44302 z" />
    <path
       style="fill:#005500;fill-opacity:1;stroke-width:0.182267"
       id="path2007"
       d="m 42.884178,217.21833 a 48.886032,48.886032 0 0 1 24.443016,-6.54949 v 48.88603 z" />
    <path
       style="fill:#808080;fill-opacity:1;stroke-width:0.182268"
       id="path2032"
       d="m 67.327194,210.66884 a 48.886032,48.886032 0 0 1 24.443018,6.54949 l -24.443018,42.33654 z" />
    <path
       style="fill:#808080;fill-opacity:1;stroke-width:0.182268"
       id="path2060"
       d="m 24.990648,235.11186 a 48.886032,48.886032 0 0 1 17.89353,-17.89353 l 24.443016,42.33654 z" />
    <path
       style="fill:#005500;fill-opacity:1;stroke-width:0.182267"
       id="path2084"
       d="m 18.441162,259.55487 a 48.886032,48.886032 0 0 1 6.549486,-24.44301 l 42.336546,24.44301 z" />
    <path
       style="fill:#808080;fill-opacity:1;stroke-width:0.182268"
       id="path2105"
       d="M 24.990648,283.99789 A 48.886032,48.886032 0 0 1 18.441162,259.55487 H 67.327194 Z" />
    <path
       style="fill:#005500;fill-opacity:1;stroke-width:0.182267"
       id="path2213"
       d="m 116.21322,259.55487 a 48.886028,48.886028 0 0 1 -6.54948,24.44301 L 67.327194,259.55487 Z" />
    <path
       style="fill:#005500;fill-opacity:1;stroke-width:0.182268"
       id="path2126"
       d="M 42.884176,301.89142 A 48.886036,48.886036 0 0 1 24.990645,283.99789 l 42.336549,-24.44302 z" />
    <path
       style="fill:#808080;fill-opacity:1;stroke-width:0.182268"
       id="path2148"
       d="M 67.327194,308.44091 A 48.886036,48.886036 0 0 1 42.884176,301.89142 L 67.327194,259.55487 Z" />
    <path
       style="fill:#005500;fill-opacity:1;stroke-width:0.182268"
       id="path2169"
       d="m 91.77021,301.89142 a 48.886036,48.886036 0 0 1 -24.443016,6.54949 v -48.88604 z" />
    <path
       style="fill:#005500;fill-opacity:1;stroke-width:0.239267"
       id="path2188"
       d="M 122.90325,291.64172 A 64.173698,64.173698 0 0 1 99.414041,315.13093 L 67.327194,259.55487 Z" />
    <path
       style="fill:#808080;fill-opacity:1;stroke-width:0.182268"
       id="path2191"
       d="M 109.66374,283.99788 A 48.886028,48.886028 0 0 1 91.770206,301.89141 L 67.327194,259.55487 Z"
       transform="translate(1.2291666e-6)" />
    <path
       style="fill:#808080;fill-opacity:1;stroke-width:0.182268"
       id="path2234"
       d="m 109.66374,235.11186 a 48.886028,48.886028 0 0 1 6.54948,24.44301 H 67.327194 Z" />
  </g>
  <g
     id="layer10"
     transform="translate(137.12877,-31.274414)">
    <path
       style="fill:#808080;fill-opacity:1;stroke-width:0.119633"
       id="path1958"
       d="m 83.37062,231.76684 a 32.086849,32.086849 0 0 1 11.7446,11.74461 l -27.788026,16.04342 z" />
    <path
       style="fill:#808080;fill-opacity:1;stroke-width:0.119633"
       id="path2011"
       d="m 51.283769,231.76684 a 32.086849,32.086849 0 0 1 16.043425,-4.29882 v 32.08685 z" />
    <path
       style="fill:#005500;fill-opacity:1;stroke-width:0.119633"
       id="path2036"
       d="m 67.327194,227.46803 a 32.086845,32.086845 0 0 1 16.043424,4.29882 l -16.043424,27.78802 z" />
    <path
       style="fill:#005500;fill-opacity:1;stroke-width:0.119633"
       id="path2063"
       d="m 39.539167,243.51145 a 32.086849,32.086849 0 0 1 11.744602,-11.74461 l 16.043425,27.78803 z" />
    <path
       style="fill:#808080;fill-opacity:1;stroke-width:0.119633"
       id="path2087"
       d="m 35.240345,259.55487 a 32.086849,32.086849 0 0 1 4.298822,-16.04342 l 27.788027,16.04342 z" />
    <path
       style="fill:#005500;fill-opacity:1;stroke-width:0.119633"
       id="path2108"
       d="M 39.539167,275.59829 A 32.086849,32.086849 0 0 1 35.240345,259.55487 H 67.327194 Z" />
    <path
       style="fill:#808080;fill-opacity:1;stroke-width:0.119633"
       id="path2129"
       d="M 51.283768,287.3429 A 32.086853,32.086853 0 0 1 39.539164,275.5983 l 27.78803,-16.04343 z" />
    <path
       style="fill:#005500;fill-opacity:1;stroke-width:0.119633"
       id="path2151"
       d="M 67.327194,291.64172 A 32.086853,32.086853 0 0 1 51.283768,287.3429 l 16.043426,-27.78803 z" />
    <path
       style="fill:#808080;fill-opacity:1;stroke-width:0.119633"
       id="path2172"
       d="m 83.370619,287.3429 a 32.086853,32.086853 0 0 1 -16.043425,4.29882 v -32.08685 z" />
    <path
       style="fill:#005500;fill-opacity:1;stroke-width:0.119634"
       id="path2195"
       d="M 95.115224,275.5983 A 32.086853,32.086853 0 0 1 83.370619,287.3429 L 67.327194,259.55487 Z" />
    <path
       style="fill:#808080;fill-opacity:1;stroke-width:0.119633"
       id="path2216"
       d="m 99.41404,259.55487 a 32.086845,32.086845 0 0 1 -4.298823,16.04342 L 67.327194,259.55487 Z" />
    <path
       style="fill:#005500;fill-opacity:1;stroke-width:0.119633"
       id="path2237"
       d="m 95.11522,243.51145 a 32.086849,32.086849 0 0 1 4.298823,16.04342 H 67.327194 Z" />
  </g>
  <g
     id="layer2"
     transform="translate(137.12877,-31.274414)">
    <circle
       style="fill:#000000;stroke-width:0.151639"
       id="path274"
       cx="67.327194"
       cy="259.55487"
       r="10.265935" />
  </g>
</svg>
