<?xml version="1.0" encoding="UTF-8" standalone="no"?>
<!-- Created with Inkscape (http://www.inkscape.org/) -->

<svg
   width="210mm"
   height="297mm"
   viewBox="0 0 210 297"
   version="1.1"
   id="svg2663"
   sodipodi:docname="GeneralWhite.svg"
   inkscape:version="1.2 (dc2aedaf03, 2022-05-15)"
   xmlns:inkscape="http://www.inkscape.org/namespaces/inkscape"
   xmlns:sodipodi="http://sodipodi.sourceforge.net/DTD/sodipodi-0.dtd"
   xmlns="http://www.w3.org/2000/svg"
   xmlns:svg="http://www.w3.org/2000/svg">
  <sodipodi:namedview
     id="namedview13"
     pagecolor="#ffffff"
     bordercolor="#000000"
     borderopacity="0.25"
     inkscape:showpageshadow="2"
     inkscape:pageopacity="0.0"
     inkscape:pagecheckerboard="0"
     inkscape:deskcolor="#d1d1d1"
     inkscape:document-units="mm"
     showgrid="false"
     inkscape:zoom="0.73851712"
     inkscape:cx="180.76765"
     inkscape:cy="561.93687"
     inkscape:window-width="1920"
     inkscape:window-height="1009"
     inkscape:window-x="-8"
     inkscape:window-y="-8"
     inkscape:window-maximized="1"
     inkscape:current-layer="g5754" />
  <defs
     id="defs2660">
    <linearGradient
       id="linearGradient5657">
      <stop
         style="stop-color:#000000;stop-opacity:1;"
         offset="0"
         id="stop5655" />
    </linearGradient>
  </defs>
  <g
     id="layer1">
    <g
       id="g5754"
       transform="rotate(-0.29138437,-17729.343,4611.7328)">
      <path
         id="path3105"
         style="fill:#000000;fill-opacity:1;stroke-width:0.264583"
         d="m 133.43618,192.83682 a 40,40 0 0 0 -40.203042,39.7962 40,40 0 0 0 39.796202,40.20253 40,40 0 0 0 40.20304,-39.79568 40,40 0 0 0 -39.7962,-40.20305 z m -0.0203,3.9997 a 36,36 0 0 1 35.81632,36.18301 36,36 0 0 1 -36.18248,35.81632 36,36 0 0 1 -35.81632,-36.18248 36,36 0 0 1 36.18248,-35.81685 z" />
    </g>
    <g
       id="g5743"
       transform="rotate(-0.29138444,105.00151,148.49826)">
      <path
         id="path5797"
         style="fill:#ffffff;fill-opacity:1;stroke-width:0.264999;stroke-dasharray:none;paint-order:markers stroke fill"
         d="m 110.9478,106.08107 a 36,36 0 0 0 -36.182491,35.81633 36,36 0 0 0 35.816321,36.18248 36,36 0 0 0 36.183,-35.81632 36,36 0 0 0 -35.81683,-36.18249 z m -0.0305,5.99955 a 30,30 0 0 1 29.84727,30.15243 30,30 0 0 1 -30.15242,29.84727 30,30 0 0 1 -29.846758,-30.15241 30,30 0 0 1 30.151908,-29.84729 z" />
    </g>
  </g>
</svg>
