<?xml version="1.0" encoding="UTF-8" standalone="no"?>
<!-- Created with Inkscape (http://www.inkscape.org/) -->

<svg
   width="210mm"
   height="297mm"
   viewBox="0 0 210 297"
   version="1.1"
   id="svg2663"
   xmlns:xlink="http://www.w3.org/1999/xlink"
   xmlns="http://www.w3.org/2000/svg"
   xmlns:svg="http://www.w3.org/2000/svg">
  <defs
     id="defs2660">
    <color-profile
       name="sRGB-IEC61966-2.1"
       xlink:href="../../Windows/system32/spool/drivers/color/sRGB%20Color%20Space%20Profile.icm"
       id="color-profile7304" />
    <linearGradient
       id="linearGradient5657">
      <stop
         style="stop-color:#000000;stop-opacity:1;"
         offset="0"
         id="stop5655" />
    </linearGradient>
  </defs>
  <g
     id="layer2" />
  <g
     id="layer1"
     transform="translate(15.188817,-6.8040981)">
    <g
       id="g5754"
       transform="rotate(-0.29138437,-19563.217,5522.8757)">
      <path
         id="path3105"
         style="fill:#000000;fill-opacity:1;stroke-width:0.264583"
         d="m 117.05158,210.84291 a 40,40 0 0 0 -40.203038,39.7962 40,40 0 0 0 39.796198,40.20253 40,40 0 0 0 40.20304,-39.79568 40,40 0 0 0 -39.7962,-40.20305 z m -0.0203,3.9997 a 36,36 0 0 1 35.81632,36.18301 36,36 0 0 1 -36.18248,35.81632 36,36 0 0 1 -35.816316,-36.18248 36,36 0 0 1 36.182476,-35.81685 z" />
    </g>
    <rect
       style="fill:#000000;fill-opacity:1;stroke-width:0.235985"
       id="rect7152"
       width="52.500401"
       height="8.9565744"
       x="63.53204"
       y="146.34758" />
    <rect
       style="fill:#000000;fill-opacity:1;stroke-width:0.235985"
       id="rect7253"
       width="52.500401"
       height="8.9565744"
       x="124.57567"
       y="-94.260529"
       transform="rotate(90)" />
  </g>
</svg>
